<svg xmlns="http://www.w3.org/2000/svg" xmlns:xlink="http://www.w3.org/1999/xlink" id="visual" viewBox="0 0 900 600" width="900" height="600"><rect x="0" y="0" width="900" height="600" fill="#FFFFFF"></rect><defs><linearGradient id="grad1_0" x1="33.3%" y1="100%" x2="100%" y2="0%"><stop offset="20%" stop-color="#ffffff" stop-opacity="1"></stop><stop offset="80%" stop-color="#ffffff" stop-opacity="1"></stop></linearGradient></defs><defs><linearGradient id="grad2_0" x1="0%" y1="100%" x2="66.7%" y2="0%"><stop offset="20%" stop-color="#ffffff" stop-opacity="1"></stop><stop offset="80%" stop-color="#ffffff" stop-opacity="1"></stop></linearGradient></defs><g transform="translate(900, 600)"><path d="M-162.2 0C-163.3 -8.9 -164.4 -17.7 -160.3 -25.4C-156.1 -33 -146.6 -39.4 -138.9 -45.1C-131.1 -50.8 -125 -55.7 -121.2 -61.7C-117.4 -67.8 -115.8 -74.9 -114.1 -82.9C-112.3 -90.9 -110.3 -99.8 -105.4 -105.4C-100.4 -111 -92.5 -113.3 -87 -119.7C-81.5 -126.2 -78.3 -136.8 -71.3 -139.9C-64.3 -143 -53.5 -138.7 -45.1 -138.9C-36.7 -139 -30.6 -143.5 -23.5 -148.2C-16.3 -152.8 -8.2 -157.5 0 -162.2L0 0Z" fill="#0FB298"></path></g><g transform="translate(0, 0)"><path d="M162.2 0C149.4 6.9 136.6 13.7 133.3 21.1C130.1 28.5 136.5 36.4 140.8 45.7C145 55.1 147 66 140.8 71.7C134.6 77.5 120.1 78.2 110.8 80.5C101.6 82.9 97.6 87 96.9 96.9C96.2 106.8 98.9 122.5 95.4 131.3C91.9 140 82.2 141.9 73.1 143.5C63.9 145 55.3 146.4 46.7 143.6C38 140.8 29.4 133.9 21.6 136.3C13.8 138.7 6.9 150.5 0 162.2L0 0Z" fill="#0FB298"></path></g></svg>